<?xml version="1.0" standalone="no"?>
<!DOCTYPE svg PUBLIC "-//W3C//DTD SVG 20010904//EN"
 "http://www.w3.org/TR/2001/REC-SVG-20010904/DTD/svg10.dtd">
<svg version="1.0" xmlns="http://www.w3.org/2000/svg"
 width="712.000000pt" height="711.000000pt" viewBox="0 0 712.000000 711.000000"
 preserveAspectRatio="xMidYMid meet">
<metadata>
Created by potrace 1.16, written by Peter Selinger 2001-2019
</metadata>
<g transform="translate(0.000000,711.000000) scale(0.100000,-0.100000)"
fill="#000000" stroke="none">
<path d="M3250 7069 c-223 -22 -434 -61 -625 -115 -61 -17 -251 -78 -285 -92
-14 -6 -50 -20 -80 -32 -95 -37 -326 -148 -422 -203 -60 -34 -226 -136 -243
-149 -5 -4 -57 -42 -114 -84 -286 -210 -557 -482 -754 -759 -31 -44 -64 -89
-73 -100 -9 -11 -23 -35 -32 -52 -9 -18 -19 -33 -24 -33 -4 0 -8 -5 -8 -10 0
-6 -12 -29 -27 -53 -50 -77 -168 -305 -229 -442 -29 -65 -84 -214 -109 -295
-14 -47 -32 -105 -39 -130 -27 -86 -67 -273 -90 -420 -69 -440 -47 -955 59
-1372 8 -32 22 -86 31 -120 9 -35 22 -78 30 -96 8 -18 14 -39 14 -47 0 -8 6
-29 14 -47 8 -18 29 -71 46 -118 38 -102 40 -106 129 -290 176 -361 381 -650
661 -930 82 -82 268 -248 314 -280 11 -8 27 -20 34 -27 8 -7 35 -27 60 -45 26
-17 48 -35 50 -40 2 -4 10 -8 17 -8 7 0 15 -3 17 -7 5 -11 66 -53 77 -53 5 0
11 -3 13 -7 6 -14 227 -143 338 -198 101 -51 236 -111 280 -125 14 -5 50 -18
80 -30 73 -28 150 -53 230 -75 36 -9 85 -23 110 -30 104 -29 228 -52 455 -86
137 -21 627 -24 790 -5 183 21 382 57 505 91 25 7 74 20 110 30 36 9 76 22 90
27 14 6 39 14 55 18 17 5 55 18 85 30 30 12 69 26 87 31 18 5 35 14 38 19 4 6
13 10 22 10 24 0 309 141 418 207 130 78 299 192 303 204 2 5 10 9 18 9 8 0
14 4 14 8 0 4 12 15 28 24 15 10 39 27 53 40 15 13 51 43 80 68 140 118 270
245 361 351 24 28 53 62 66 76 12 14 42 50 65 81 23 32 45 59 48 62 13 11 169
239 169 247 0 4 6 14 14 22 43 50 227 418 287 576 55 146 122 368 139 460 4
22 12 60 18 85 67 274 93 785 57 1095 -27 229 -67 433 -121 615 -25 84 -95
295 -109 325 -7 17 -30 68 -51 115 -44 101 -122 256 -164 325 -16 28 -34 59
-40 70 -6 11 -19 34 -30 50 -11 17 -25 40 -31 53 -7 12 -16 22 -21 22 -4 0 -8
4 -8 10 0 22 -216 303 -314 409 -324 348 -650 593 -1051 790 -157 76 -206 98
-340 148 -279 105 -577 171 -910 203 -127 12 -510 11 -635 -1z m423 -1250 c80
-22 53 22 823 -1315 60 -103 67 -112 105 -123 58 -18 140 -101 162 -165 25
-72 22 -160 -7 -221 -107 -225 -418 -223 -523 4 -22 47 -25 63 -21 135 l5 81
-115 200 c-174 303 -473 820 -476 822 -4 5 -196 -333 -196 -345 0 -9 208 -372
1049 -1827 435 -753 414 -715 419 -771 6 -69 -23 -131 -80 -170 l-41 -29 -555
-3 -555 -2 -37 -30 c-59 -47 -107 -63 -186 -64 -94 -1 -171 37 -225 108 -45
59 -59 104 -59 187 1 107 56 196 154 247 43 22 64 27 131 27 85 0 129 -16 193
-70 l30 -25 352 0 c206 0 350 4 348 9 -8 21 -1163 2020 -1168 2020 -3 1 -207
-349 -453 -777 -246 -427 -508 -882 -582 -1009 l-134 -233 198 0 197 0 184
318 c149 257 183 323 180 347 -19 145 39 267 155 327 25 13 67 23 111 26 61 4
80 1 125 -20 73 -33 110 -66 143 -128 80 -147 14 -337 -139 -401 l-55 -23
-216 -375 c-120 -207 -227 -387 -238 -400 -12 -13 -39 -32 -61 -42 -37 -17
-74 -19 -500 -19 -425 0 -463 2 -500 19 -76 34 -122 114 -112 197 3 34 163
319 785 1401 429 747 866 1509 972 1693 106 184 204 348 219 364 30 33 95 65
131 66 14 0 42 -5 63 -11z m1292 -2198 c60 -28 82 -57 208 -276 63 -110 162
-281 219 -380 57 -99 160 -276 227 -393 68 -117 127 -231 132 -253 26 -114
-68 -229 -187 -229 -56 0 -101 20 -141 63 -16 18 -128 203 -248 412 -120 209
-275 477 -344 595 l-126 215 0 72 c0 64 3 75 31 110 36 46 105 83 154 83 19 0
53 -9 75 -19z"/>
</g>
</svg>
